<?xml version="1.0" encoding="utf-8"?>
<!-- Generator: Adobe Illustrator 17.0.0, SVG Export Plug-In . SVG Version: 6.00 Build 0)  -->
<!DOCTYPE svg PUBLIC "-//W3C//DTD SVG 1.1//EN" "http://www.w3.org/Graphics/SVG/1.1/DTD/svg11.dtd">
<svg version="1.1" id="Layer_1" xmlns="http://www.w3.org/2000/svg" xmlns:xlink="http://www.w3.org/1999/xlink" x="0px" y="0px"
	 width="698.965px" height="334.483px" viewBox="0 0 698.965 334.483" enable-background="new 0 0 698.965 334.483"
	 xml:space="preserve">
<g>
	<g>
		<g>
			<path fill="#0058A2" d="M56.525,288.238h78.945c10.363,0,20.57-8.382,22.787-18.735c2.198-10.377-4.424-18.822-14.814-18.822
				H26.969l-15.952,75.058C15.198,306.143,35.77,288.238,56.525,288.238z"/>
		</g>
		<g>
			<path fill="#0058A2" d="M72.519,213.061l78.919,0.037c10.382,0,20.594-8.381,22.812-18.801
				c2.186-10.355-4.439-18.758-14.825-18.758l-116.473,0.04l-15.954,74.999C31.416,229.826,51.783,213.061,72.519,213.061z"/>
		</g>
		<g>
			<path fill="#0058A2" d="M88.498,137.959l78.917,0.018c10.376,0,20.58-8.422,22.785-18.778
				c2.201-10.375-4.433-18.759-14.82-18.759l-116.438,0.021l-15.968,75.019C47.368,154.745,67.743,137.959,88.498,137.959z"/>
		</g>
	</g>
	<g>
		<g>
			<path fill="#0058A2" d="M278.385,250.518h-69.822c-10.366,0-20.589,8.339-22.796,18.759
				c-2.186,10.355,4.452,18.738,14.825,18.738h107.308l15.928-75.018C319.666,232.614,299.072,250.518,278.385,250.518z"/>
		</g>
		<g>
			<path fill="#0058A2" d="M251.214,137.959l-17.692,83.544c-2.219,10.397-12.426,18.823-22.811,18.823
				c-10.359,0-16.993-8.426-14.793-18.823l25.74-121.042h75.037C277.078,100.461,255.618,117.206,251.214,137.959z"/>
		</g>
	</g>
	<g>
		<g>
			<path fill="#0058A2" d="M366.323,288.238h78.947c10.348,0,20.549-8.382,22.758-18.735c2.195-10.377-4.418-18.822-14.781-18.822
				H336.778l-15.946,75.058C325,306.143,345.549,288.238,366.323,288.238z"/>
		</g>
		<g>
			<path fill="#0058A2" d="M382.293,213.061l78.926,0.037c10.385,0,20.572-8.381,22.768-18.801
				c2.229-10.355-4.414-18.758-14.77-18.758l-116.466,0.04l-15.928,74.999C341.214,229.826,361.531,213.061,382.293,213.061z"/>
		</g>
		<g>
			<path fill="#0058A2" d="M398.289,137.959l78.912,0.018c10.359,0,20.58-8.422,22.76-18.778
				c2.217-10.375-4.438-18.759-14.795-18.759l-116.444,0.021l-15.946,75.019C357.168,154.745,377.543,137.959,398.289,137.959z"/>
		</g>
	</g>
	<path fill="#0058A2" d="M476.578,287.995l73.596-117.479c4.201-6.634,11.865-11.356,19.545-11.356
		c10.273,0,16.816,8.303,14.641,18.576c-0.553,2.605-1.65,5.089-3.072,7.306l-48.486,77.523c-1.303,2.134-2.229,4.515-2.748,6.939
		c-2.168,10.211,4.357,18.513,14.609,18.513L476.578,287.995z"/>
	<path fill="#0058A2" d="M689.619,288.015h-65.441l-8.691-43.256l-24.881-123.299c-0.103-0.347-0.164-0.674-0.205-1.039
		c-0.305-2.077-0.215-4.214,0.266-6.49c2.184-10.275,12.307-18.616,22.582-18.616c7.549,0,13.145,4.717,14.701,11.125
		c0.074,0.308-0.018-0.284,0,0l32.059,158.688C662.797,278.554,674.09,288.015,689.619,288.015z"/>
	<g>
		<path fill="#9DA3A6" d="M65.209,67.114L75.451,9.015h8.186l-8.94,50.716H95.4l-1.301,7.383H65.209z"/>
		<path fill="#9DA3A6" d="M149.97,49.7c-1.33,7.544-5.441,10.834-10.497,10.834c-4.975,0-8.049-3.05-5.701-16.371
			c2.094-11.876,6.889-15.406,11.704-15.406c4.815,0,7.506,3.852,6.163,11.475L149.97,49.7z M162.526,22.176h-6.581l-1.301,7.383
			h-0.161c-0.69-6.099-3.773-8.186-8.669-8.186c-11.154,0-17.723,11.315-19.831,23.271c-2.575,14.604,1.114,23.271,11.626,23.271
			c6.339,0,8.798-2.567,11.384-7.222h0.161l-1.132,6.42h6.58L162.526,22.176z"/>
		<path fill="#9DA3A6" d="M200.751,40.231c1.344-7.623,5.393-11.475,10.208-11.475c4.815,0,8.365,3.53,6.272,15.406
			c-2.349,13.321-6.497,16.371-11.473,16.371c-5.055,0-8.006-3.29-6.677-10.834L200.751,40.231z M188.308,67.114h6.581l1.131-6.42
			h0.161c0.945,4.654,2.498,7.222,8.838,7.222c10.512,0,17.256-8.667,19.831-23.271c2.108-11.956-0.472-23.271-11.626-23.271
			c-4.574,0-7.967,2.407-9.784,4.975h-0.241l3.055-17.333h-7.704L188.308,67.114z"/>
		<path fill="#9DA3A6" d="M281.344,44.644c-2.15,12.198-6.445,16.531-12.544,16.531c-6.099,0-8.866-4.333-6.716-16.531
			c2.15-12.196,6.445-16.529,12.544-16.529C280.727,28.115,283.494,32.448,281.344,44.644z M289.048,44.644
			c2.518-14.283-1.996-23.271-13.231-23.271c-11.234,0-18.918,8.987-21.436,23.271c-2.518,14.284,1.997,23.271,13.232,23.271
			C278.847,67.916,286.53,58.928,289.048,44.644z"/>
		<path fill="#9DA3A6" d="M316.704,67.114l7.922-44.938h6.821l-0.877,4.975h0.161c2.675-4.253,6.315-5.777,11.29-5.777l-1.386,7.863
			c-7.572,0.161-10.427,4.977-11.487,10.994l-4.739,26.883H316.704z"/>
		<path fill="#9DA3A6" d="M388.948,49.7c-1.33,7.544-5.441,10.834-10.496,10.834c-4.975,0-8.049-3.05-5.701-16.371
			c2.094-11.876,6.889-15.406,11.703-15.406c4.816,0,7.508,3.852,6.164,11.475L388.948,49.7z M401.504,22.176h-6.582l-1.301,7.383
			h-0.16c-0.691-6.099-3.773-8.186-8.668-8.186c-11.154,0-17.724,11.315-19.831,23.271c-2.574,14.604,1.114,23.271,11.626,23.271
			c6.34,0,8.799-2.567,11.385-7.222h0.16l-1.131,6.42h6.58L401.504,22.176z"/>
		<path fill="#9DA3A6" d="M441.963,28.917l-6.733,38.197h-7.703l6.732-38.197h-5.057l1.189-6.74h5.055l1.897-10.753h7.703
			l-1.895,10.753h5.055l-1.188,6.74H441.963z"/>
		<path fill="#9DA3A6" d="M498.012,44.644c-2.15,12.198-6.445,16.531-12.543,16.531c-6.1,0-8.867-4.333-6.717-16.531
			c2.15-12.196,6.445-16.529,12.543-16.529C497.395,28.115,500.162,32.448,498.012,44.644z M505.715,44.644
			c2.518-14.283-1.996-23.271-13.23-23.271c-11.236,0-18.918,8.987-21.436,23.271c-2.518,14.284,1.996,23.271,13.23,23.271
			C495.514,67.916,503.198,58.928,505.715,44.644z"/>
		<path fill="#9DA3A6" d="M533.373,67.114l7.92-44.938h6.822l-0.877,4.975h0.16c2.676-4.253,6.315-5.777,11.289-5.777l-1.385,7.863
			c-7.572,0.161-10.428,4.977-11.488,10.994l-4.738,26.883H533.373z"/>
		<path fill="#9DA3A6" d="M579.996,67.114l7.922-44.938h7.703L587.7,67.114H579.996z M590.237,9.015h7.705l-1.443,8.186h-7.703
			L590.237,9.015z"/>
		<path fill="#9DA3A6" d="M650.481,44.644c-2.15,12.198-6.445,16.531-12.543,16.531c-6.1,0-8.867-4.333-6.717-16.531
			c2.15-12.196,6.445-16.529,12.545-16.529S652.631,32.448,650.481,44.644z M658.186,44.644
			c2.518-14.283-1.998-23.271-13.232-23.271c-11.234,0-18.918,8.987-21.435,23.271c-2.518,14.284,1.996,23.271,13.23,23.271
			C647.985,67.916,655.666,58.928,658.186,44.644z"/>
	</g>
</g>
</svg>
